<svg width="72" height="77" viewBox="0 0 72 77" fill="none" xmlns="http://www.w3.org/2000/svg">
<g clip-path="url(#clip0_124_547)">
<path d="M70.8337 36.5874H1.16631C0.522194 36.5874 0 37.1459 0 37.8347V43.1565C0 43.8454 0.522194 44.4038 1.16631 44.4038H1.24406V67.1047C1.24406 67.7935 1.76625 68.352 2.41037 68.352H18.6609V71.1792H16.095C15.4509 71.1792 14.9287 71.7377 14.9287 72.4265C14.9287 73.1153 15.4509 73.6738 16.095 73.6738H23.5594C24.2035 73.6738 24.7257 73.1153 24.7257 72.4265C24.7257 71.7377 24.2035 71.1792 23.5594 71.1792H20.9935V68.352H51.0065V71.1792H48.4406C47.7965 71.1792 47.2743 71.7377 47.2743 72.4265C47.2743 73.1153 47.7965 73.6738 48.4406 73.6738H55.905C56.5491 73.6738 57.0713 73.1153 57.0713 72.4265C57.0713 71.7377 56.5491 71.1792 55.905 71.1792H53.3391V68.352H69.5896C70.2337 68.352 70.7559 67.7935 70.7559 67.1047V44.4038H70.8337C71.4778 44.4038 72 43.8454 72 43.1565V37.8347C72 37.1459 71.4778 36.5874 70.8337 36.5874ZM18.6609 65.8574H3.57667V44.4038H11.7038L13.2796 51.9871C13.6539 53.789 15.1209 55.0474 16.8469 55.0474H18.6609V65.8574ZM16.8469 52.5528C16.2225 52.5528 15.692 52.0977 15.5565 51.4459L15.1992 49.7256H24.8035C25.5323 49.7256 26.1253 50.3598 26.1253 51.1392C26.1253 51.9187 25.5323 52.5528 24.8035 52.5528H16.8469ZM51.0065 60.5356H47.1965C46.5524 60.5356 46.0302 61.094 46.0302 61.7829C46.0302 62.4717 46.5524 63.0302 47.1965 63.0302H51.0065V65.8574H20.9935V63.0302H24.8035C25.4476 63.0302 25.9698 62.4717 25.9698 61.7829C25.9698 61.094 25.4476 60.5356 24.8035 60.5356H20.9935V55.0474H24.8035C26.8185 55.0474 28.4579 53.2942 28.4579 51.1392C28.4579 48.9842 26.8185 47.231 24.8035 47.231H14.851C14.7941 47.231 14.7381 47.2354 14.6833 47.2438L14.0932 44.4038H57.9067L57.3165 47.2438C57.2618 47.2354 57.2059 47.231 57.1489 47.231H47.1964C45.1813 47.231 43.542 48.9842 43.542 51.1392C43.542 53.2942 45.1813 55.0474 47.1964 55.0474H51.0065V60.5356ZM47.1965 52.5528C46.4677 52.5528 45.8747 51.9187 45.8747 51.1392C45.8747 50.3598 46.4677 49.7256 47.1965 49.7256H56.8008L56.4435 51.4459C56.308 52.0977 55.7775 52.5528 55.1531 52.5528H47.1965ZM68.4233 65.8574H53.3391V55.0474H55.1531C56.8791 55.0474 58.3461 53.789 58.7204 51.9871L60.2962 44.4038H68.4233V65.8574ZM69.6674 41.9092H69.5896H60.7996C60.838 41.3045 60.4604 40.7439 59.8902 40.6085C59.2619 40.4592 58.6385 40.8831 58.4987 41.5555L58.4251 41.9092H13.5749L13.5013 41.5555C13.3615 40.8831 12.739 40.4589 12.1098 40.6085C11.5398 40.7439 11.162 41.3047 11.2004 41.9092H2.41037H2.33261V39.082H69.6674V41.9092Z" fill="#11B4E8"/>
<path d="M70.8337 3.32617H1.16631C0.522194 3.32617 0 3.88463 0 4.57347V9.89529C0 10.5841 0.522194 11.1426 1.16631 11.1426H14.9287V15.4205C12.0977 16.0051 9.95248 18.6736 9.95248 21.8694C9.95248 22.5582 10.4747 23.1167 11.1188 23.1167H14.9287V23.1998C14.9287 23.8887 15.4509 24.4471 16.095 24.4471C16.7391 24.4471 17.2613 23.8887 17.2613 23.1998V23.1167H21.0713C21.7154 23.1167 22.2376 22.5582 22.2376 21.8694C22.2376 18.6736 20.0924 16.0051 17.2613 15.4205V11.1426H34.8337V15.4205C32.0027 16.0051 29.8575 18.6736 29.8575 21.8694C29.8575 22.5582 30.3796 23.1167 31.0238 23.1167H34.8337V23.1998C34.8337 23.8887 35.3559 24.4471 36 24.4471C36.6441 24.4471 37.1663 23.8887 37.1663 23.1998V23.1167H40.9762C41.6204 23.1167 42.1426 22.5582 42.1426 21.8694C42.1426 18.6736 39.9973 16.0051 37.1663 15.4205V11.1426H54.7387V15.4205C51.9076 16.0051 49.7624 18.6736 49.7624 21.8694C49.7624 22.5582 50.2846 23.1167 50.9287 23.1167H54.7387V23.1998C54.7387 23.8887 55.2609 24.4471 55.905 24.4471C56.5491 24.4471 57.0713 23.8887 57.0713 23.1998V23.1167H60.8812C61.5253 23.1167 62.0475 22.5582 62.0475 21.8694C62.0475 18.6736 59.9023 16.0051 57.0713 15.4205V11.1426H70.8337C71.4778 11.1426 72 10.5841 72 9.89529V4.57347C72 3.88463 71.4778 3.32617 70.8337 3.32617ZM19.7224 20.6221H12.4677C12.9614 18.9834 14.4009 17.7949 16.095 17.7949C17.7891 17.7949 19.2287 18.9834 19.7224 20.6221ZM39.6274 20.6221H32.3726C32.8664 18.9834 34.3059 17.7949 36 17.7949C37.6941 17.7949 39.1336 18.9834 39.6274 20.6221ZM59.5323 20.6221H52.2776C52.7713 18.9834 54.2109 17.7949 55.905 17.7949C57.5991 17.7949 59.0386 18.9834 59.5323 20.6221ZM69.6674 8.64799H2.33261V5.82077H69.6674V8.64799Z" fill="#11B4E8"/>
</g>
<defs>
<clipPath id="clip0_124_547">
<rect width="72" height="77" fill="white"/>
</clipPath>
</defs>
</svg>
