<svg width="25" height="25" viewBox="0 0 25 25" fill="none" xmlns="http://www.w3.org/2000/svg">
<path d="M19.4707 4.42773H5.4707C4.67505 4.42773 3.91199 4.7438 3.34938 5.30641C2.78677 5.86902 2.4707 6.63208 2.4707 7.42773V17.4277C2.4707 18.2234 2.78677 18.9864 3.34938 19.5491C3.91199 20.1117 4.67505 20.4277 5.4707 20.4277H19.4707C20.2664 20.4277 21.0294 20.1117 21.592 19.5491C22.1546 18.9864 22.4707 18.2234 22.4707 17.4277V7.42773C22.4707 6.63208 22.1546 5.86902 21.592 5.30641C21.0294 4.7438 20.2664 4.42773 19.4707 4.42773ZM19.4707 6.42773L12.9707 10.8977C12.8187 10.9855 12.6462 11.0317 12.4707 11.0317C12.2952 11.0317 12.1227 10.9855 11.9707 10.8977L5.4707 6.42773H19.4707Z" fill="#11B4E8"/>
</svg>
