<svg width="41" height="38" viewBox="0 0 41 38" fill="none" xmlns="http://www.w3.org/2000/svg">
<path d="M38.846 0H2.41595C1.53984 0 0.832031 0.67925 0.832031 1.52V36.48C0.832031 37.3208 1.53984 38 2.41595 38H38.846C39.7221 38 40.4299 37.3208 40.4299 36.48V1.52C40.4299 0.67925 39.7221 0 38.846 0ZM37.2621 34.96H28.1496V23.2845H33.2974L34.0695 17.5513H28.1496V13.889C28.1496 12.2265 28.6298 11.096 31.1096 11.096H34.2725V5.966C33.723 5.89475 31.8471 5.738 29.6593 5.738C25.0956 5.738 21.9724 8.41225 21.9724 13.319V17.5465H16.8147V23.2797H21.9773V34.96H3.99986V3.04H37.2621V34.96Z" fill="#00ABF7"/>
</svg>
