<svg width="67" height="67" viewBox="0 0 67 67" fill="none" xmlns="http://www.w3.org/2000/svg">
<g clip-path="url(#clip0_124_507)">
<g clip-path="url(#clip1_124_507)">
<path fill-rule="evenodd" clip-rule="evenodd" d="M16.9026 18.1928C18.3132 17.6713 19.746 17.6001 20.9327 17.6001H22.6419C25.5241 17.6001 28.3354 18.5322 30.6879 20.2678L32.0886 21.3011C32.8231 21.8428 33.7005 22.1337 34.5999 22.1337C35.4996 22.1337 36.377 21.8428 37.1113 21.3011L38.5119 20.2678C40.8645 18.5322 43.6758 17.6001 46.5578 17.6001H48.2671C49.454 17.6001 50.8867 17.6713 52.2971 18.1928C56.3249 19.6819 59.5102 23.1038 61.608 28.6405C63.6843 34.1201 64.7503 41.7869 64.5829 52.1173C64.5474 54.2977 64.2865 56.7413 63.4822 58.9424C62.6676 61.1722 61.2441 63.274 58.8491 64.4679C57.4867 65.1472 55.8809 65.6001 54.0603 65.6001C51.8643 65.6001 50.0579 64.9406 48.6405 63.9725C47.3221 63.0715 46.1693 61.907 45.1845 60.9121C45.0645 60.7908 44.947 60.6724 44.832 60.5569C43.7021 59.4232 42.7521 58.5386 41.6981 57.9687C40.3661 57.2487 38.8878 56.8728 37.3876 56.8728H31.8126C30.312 56.8728 28.8337 57.2487 27.5019 57.9687C26.4477 58.5386 25.4977 59.4232 24.3679 60.5569C24.2529 60.6724 24.1355 60.7908 24.0156 60.9121C23.0306 61.907 21.8778 63.0715 20.5593 63.9725C19.1419 64.9406 17.3357 65.6001 15.1396 65.6001C13.319 65.6001 11.7131 65.1472 10.3506 64.4679C7.95573 63.274 6.53242 61.1722 5.71762 58.9424C4.91342 56.7413 4.65252 54.2977 4.61714 52.1173C4.44947 41.7872 5.51557 34.1201 7.59179 28.6405C9.68964 23.1039 12.8749 19.6819 16.9026 18.1928ZM20.9327 21.9637C19.8635 21.9637 19.0175 22.0409 18.3019 22.3054C15.6801 23.2747 13.2539 25.5755 11.4851 30.2435C9.6948 34.9686 8.63939 41.9882 8.80256 52.0434C8.83385 53.9707 9.06726 55.8503 9.6295 57.3892C10.1811 58.899 10.9964 59.953 12.1566 60.5313C13.0099 60.9566 14.0019 61.2365 15.1396 61.2365C16.4934 61.2365 17.5062 60.8408 18.2646 60.3227C19.2295 59.6635 20.0871 58.8001 21.1173 57.7627C21.2309 57.6481 21.3467 57.5317 21.4649 57.413C22.5839 56.2901 23.9219 54.9883 25.5748 54.0949C27.5021 53.0529 29.6414 52.5092 31.8126 52.5092H37.3876C39.5584 52.5092 41.6978 53.0529 43.625 54.0949C45.278 54.9883 46.6161 56.2901 47.7349 57.413C47.8532 57.5317 47.969 57.6481 48.0826 57.7627C49.1127 58.8001 49.9702 59.6635 50.9352 60.3227C51.6938 60.8408 52.7065 61.2365 54.0603 61.2365C55.198 61.2365 56.1898 60.9566 57.0432 60.5313C58.2036 59.953 59.0188 58.899 59.5705 57.3892C60.1325 55.8503 60.3661 53.9707 60.3974 52.0434C60.5604 41.9882 59.5052 34.9686 57.7147 30.2435C55.9459 25.5755 53.5197 23.2747 50.8979 22.3054C50.1823 22.0409 49.3365 21.9637 48.2671 21.9637H46.5578C44.5421 21.9637 42.5757 22.6157 40.9301 23.8297L39.5294 24.863C38.0883 25.9263 36.3659 26.4974 34.5999 26.4974C32.8343 26.4974 31.1118 25.9264 29.6704 24.863L28.2698 23.8297C26.6243 22.6157 24.6579 21.9637 22.6419 21.9637H20.9327ZM22.0418 32.1456C23.1978 32.1456 24.1348 33.1224 24.1348 34.3274V36.5092H26.2278C27.3838 36.5092 28.3209 37.4861 28.3209 38.691C28.3209 39.896 27.3838 40.8728 26.2278 40.8728H24.1348V43.0546C24.1348 44.2596 23.1978 45.2365 22.0418 45.2365C20.8859 45.2365 19.9488 44.2596 19.9488 43.0546V40.8728H17.8558C16.6998 40.8728 15.7627 39.896 15.7627 38.691C15.7627 37.4861 16.6998 36.5092 17.8558 36.5092H19.9488V34.3274C19.9488 33.1224 20.8859 32.1456 22.0418 32.1456Z" fill="#11B4E8"/>
<path d="M53.25 36.1875C53.25 37.3266 52.3266 38.25 51.1875 38.25C50.0484 38.25 49.125 37.3266 49.125 36.1875C49.125 35.0484 50.0484 34.125 51.1875 34.125C52.3266 34.125 53.25 35.0484 53.25 36.1875Z" fill="#11B4E8"/>
<path d="M45 36.1875C45 37.3266 44.0766 38.25 42.9375 38.25C41.7984 38.25 40.875 37.3266 40.875 36.1875C40.875 35.0484 41.7984 34.125 42.9375 34.125C44.0766 34.125 45 35.0484 45 36.1875Z" fill="#11B4E8"/>
<path d="M47.0625 30C48.2016 30 49.125 30.9234 49.125 32.0625C49.125 33.2016 48.2016 34.125 47.0625 34.125C45.9234 34.125 45 33.2016 45 32.0625C45 30.9234 45.9234 30 47.0625 30Z" fill="#11B4E8"/>
<path d="M47.0625 38.25C48.2016 38.25 49.125 39.1734 49.125 40.3125C49.125 41.4516 48.2016 42.375 47.0625 42.375C45.9234 42.375 45 41.4516 45 40.3125C45 39.1734 45.9234 38.25 47.0625 38.25Z" fill="#11B4E8"/>
</g>
</g>
<defs>
<clipPath id="clip0_124_507">
<rect width="66" height="66" fill="white" transform="translate(0.75 0.609863)"/>
</clipPath>
<clipPath id="clip1_124_507">
<rect width="66" height="66" fill="white" transform="translate(0.75 0.609863)"/>
</clipPath>
</defs>
</svg>
