<svg width="40" height="38" viewBox="0 0 40 38" fill="none" xmlns="http://www.w3.org/2000/svg">
<path fill-rule="evenodd" clip-rule="evenodd" d="M11.3798 3.99726C7.49187 3.99726 4.34013 6.97142 4.34013 10.6402V27.2476C4.34013 30.9164 7.49187 33.8906 11.3798 33.8906H28.9788C32.8667 33.8906 36.0184 30.9164 36.0184 27.2476V10.6402C36.0184 6.97142 32.8667 3.99726 28.9788 3.99726H11.3798ZM0.820312 10.6402C0.820312 5.13701 5.54794 0.675781 11.3798 0.675781H28.9788C34.8106 0.675781 39.5383 5.13701 39.5383 10.6402V27.2476C39.5383 32.7508 34.8106 37.2121 28.9788 37.2121H11.3798C5.54794 37.2121 0.820312 32.7508 0.820312 27.2476V10.6402Z" fill="#00ABF7"/>
<path fill-rule="evenodd" clip-rule="evenodd" d="M28.1001 9.81015C28.1001 8.89295 28.8881 8.14941 29.86 8.14941H29.8776C30.8496 8.14941 31.6376 8.89295 31.6376 9.81015C31.6376 10.7274 30.8496 11.4709 29.8776 11.4709H29.86C28.8881 11.4709 28.1001 10.7274 28.1001 9.81015ZM21.0311 13.944C19.9326 13.7903 18.8107 13.9674 17.825 14.45C16.8393 14.9327 16.0399 15.6964 15.5407 16.6324C15.0414 17.5685 14.8676 18.6293 15.044 19.6639C15.2205 20.6985 15.7381 21.6543 16.5234 22.3953C17.3086 23.1363 18.3215 23.6248 19.4179 23.7913C20.5143 23.9578 21.6385 23.7938 22.6304 23.3227C23.6224 22.8515 24.4316 22.0972 24.9431 21.167C25.4546 20.2369 25.6422 19.1782 25.4793 18.1416C25.3132 17.0842 24.791 16.1053 23.99 15.3494C23.189 14.5936 22.1517 14.1008 21.0311 13.944ZM16.2039 11.5018C17.8468 10.6974 19.7166 10.4023 21.5474 10.6585C23.415 10.9198 25.1439 11.741 26.4789 13.0008C27.8139 14.2605 28.6841 15.8921 28.9611 17.6544C29.2325 19.382 28.9198 21.1465 28.0674 22.6968C27.2149 24.2471 25.8661 25.5043 24.2129 26.2895C22.5596 27.0748 20.6861 27.3481 18.8587 27.0706C17.0314 26.7931 15.3432 25.979 14.0345 24.744C12.7257 23.509 11.863 21.916 11.5689 20.1916C11.2749 18.4672 11.5645 16.6992 12.3966 15.1391C13.2288 13.579 14.561 12.3062 16.2039 11.5018Z" fill="#00ABF7"/>
</svg>
