<svg width="24" height="24" viewBox="0 0 24 24" fill="none" xmlns="http://www.w3.org/2000/svg">
<path d="M19.0711 16.5563L12 23L4.92889 16.5563C3.53038 15.2819 2.57798 13.6581 2.19214 11.8905C1.8063 10.1228 2.00434 8.29051 2.76122 6.62539C3.5181 4.96027 4.79982 3.53707 6.44431 2.53576C8.0888 1.53445 10.0222 1 12 1C13.9778 1 15.9112 1.53445 17.5557 2.53576C19.2002 3.53707 20.4819 4.96027 21.2388 6.62539C21.9957 8.29051 22.1937 10.1228 21.8079 11.8905C21.422 13.6581 20.4696 15.2819 19.0711 16.5563ZM12 12.1377C12.5894 12.1377 13.1546 11.9243 13.5713 11.5445C13.9881 11.1648 14.2222 10.6497 14.2222 10.1126C14.2222 9.57554 13.9881 9.06047 13.5713 8.6807C13.1546 8.30093 12.5894 8.08757 12 8.08757C11.4106 8.08757 10.8454 8.30093 10.4287 8.6807C10.0119 9.06047 9.77778 9.57554 9.77778 10.1126C9.77778 10.6497 10.0119 11.1648 10.4287 11.5445C10.8454 11.9243 11.4106 12.1377 12 12.1377Z" fill="#11B4E8"/>
</svg>
