<svg width="74" height="74" viewBox="0 0 74 74" fill="none" xmlns="http://www.w3.org/2000/svg">
<path fill-rule="evenodd" clip-rule="evenodd" d="M72.9332 19.347C73.2082 20.3756 73.0636 21.4714 72.5312 22.3935C71.9989 23.3156 71.1222 23.9886 70.0939 24.2649L61.1314 26.6702C60.6214 26.807 60.0894 26.8421 59.5658 26.7733C59.0422 26.7045 58.5373 26.5333 58.0799 26.2694C57.1561 25.7364 56.4819 24.8583 56.2056 23.8283C55.9292 22.7982 56.0734 21.7005 56.6064 20.7767C57.1393 19.8529 58.0174 19.1787 59.0475 18.9024L68.0154 16.5131C68.5251 16.3761 69.0568 16.3409 69.58 16.4095C70.1033 16.4781 70.608 16.6491 71.0652 16.9128C71.5224 17.1765 71.9231 17.5276 72.2446 17.9462C72.566 18.3648 72.8019 18.8426 72.9386 19.3524L72.9332 19.347ZM53.685 0.136286C52.6564 -0.138669 51.5607 0.00591804 50.6386 0.538288C49.7165 1.07066 49.0434 1.94727 48.7672 2.97557L46.3672 11.9381C46.2094 12.4539 46.1571 12.9963 46.2135 13.5328C46.2698 14.0693 46.4337 14.589 46.6952 15.0608C46.9567 15.5327 47.3106 15.947 47.7356 16.2791C48.1607 16.6113 48.6484 16.8544 49.1694 16.994C49.6905 17.1337 50.2344 17.1669 50.7686 17.0918C51.3028 17.0167 51.8164 16.8349 52.2788 16.557C52.7412 16.2791 53.1429 15.911 53.46 15.4746C53.7771 15.0381 54.003 14.5423 54.1243 14.0166L56.5297 5.05414C56.8046 4.02551 56.66 2.92979 56.1277 2.00769C55.5953 1.08558 54.7187 0.412499 53.6904 0.136286L53.685 0.136286ZM43.1582 23.7077C44.1016 23.3935 45.1138 23.3481 46.0815 23.5765C47.0492 23.8048 47.9342 24.298 48.6376 25.0008C49.3409 25.7036 49.8348 26.5883 50.064 27.5558C50.2931 28.5233 50.2485 29.5355 49.935 30.4791L37.2118 68.622C35.5672 73.5506 28.5761 73.4863 27.0225 68.5256L23.61 57.672L9.14573 72.1363C8.14051 73.1408 6.77742 73.7048 5.35634 73.7043C3.93525 73.7038 2.57257 73.1388 1.56806 72.1336C0.56355 71.1284 -0.00049896 69.7653 4.64197e-06 68.3442C0.000508244 66.9231 0.565518 65.5604 1.57074 64.5559L16.0725 50.0595L5.11181 46.6202C0.156454 45.0666 0.0921614 38.0702 5.02074 36.4256L43.1636 23.7024L43.1582 23.7077ZM26.8993 10.8184C26.5154 10.448 26.2091 10.0048 25.9983 9.51467C25.7875 9.02458 25.6764 8.49741 25.6715 7.96393C25.6666 7.43044 25.7681 6.90133 25.9698 6.40745C26.1716 5.91358 26.4698 5.46484 26.8468 5.08742C27.2239 4.70999 27.6723 4.41145 28.166 4.20919C28.6597 4.00694 29.1887 3.90503 29.7222 3.90941C30.2557 3.91379 30.783 4.02438 31.2733 4.23472C31.7636 4.44506 32.2071 4.75093 32.5779 5.1345L39.1404 11.7024C39.8501 12.464 40.2365 13.4714 40.2181 14.5123C40.1997 15.5532 39.7781 16.5463 39.0419 17.2825C38.3058 18.0186 37.3126 18.4403 36.2718 18.4587C35.2308 18.477 34.2235 18.0906 33.4618 17.3809L26.8993 10.8184ZM62.2082 45.4256C62.9657 46.1578 63.9804 46.5633 65.0339 46.5546C66.0873 46.546 67.0953 46.1239 67.8406 45.3793C68.5859 44.6347 69.0089 43.6272 69.0186 42.5737C69.0282 41.5202 68.6237 40.5051 67.8922 39.747L61.3297 33.1791C60.5715 32.4476 59.5564 32.0431 58.503 32.0527C57.4495 32.0624 56.442 32.4854 55.6974 33.2307C54.9528 33.976 54.5307 34.984 54.522 36.0374C54.5134 37.0909 54.9188 38.1056 55.6511 38.8631L62.2082 45.4256Z" fill="white"/>
</svg>
