<svg width="67" height="67" viewBox="0 0 67 67" fill="none" xmlns="http://www.w3.org/2000/svg">
<g clip-path="url(#clip0_124_555)">
<g clip-path="url(#clip1_124_555)">
<path d="M67 36.777C67 33.269 64.8731 30.199 61.6774 28.717V13C61.6774 6.383 55.9471 1 48.9032 1C41.8593 1 36.129 6.383 36.129 13V14.182C34.7824 13.966 33.3826 13.943 31.9753 14.148C31.8997 14.159 31.8252 14.178 31.7496 14.19C31.8231 13.798 31.871 13.402 31.871 13V9C31.871 7.418 30.5616 6.118 28.9063 6.008C26.7538 2.904 23.0504 1 19.0968 1C12.6405 1 7.3871 5.935 7.3871 12V13C7.3871 15.285 8.60171 17.419 10.5806 18.721V18.778C10.5806 21.298 11.8304 23.546 13.7742 25.013V27.154L9.00623 27.9C4.36706 28.625 1 32.359 1 36.777V45H19.8292C16.2045 46.337 13.7742 49.606 13.7742 53.364V63H54.2258V53.364C54.2258 49.606 51.7955 46.337 48.1708 45H67V36.777ZM38.2581 13C38.2581 7.486 43.0335 3 48.9032 3C54.773 3 59.5484 7.486 59.5484 13V28.01C59.3642 27.971 59.1822 27.929 58.9938 27.899L54.2258 27.153V25.012C56.1696 23.544 57.4194 21.297 57.4194 18.777L57.4119 12.441L55.9024 13.094C55.8811 13.104 53.7542 14 48.9032 14C44.0522 14 41.9253 13.104 41.9125 13.099L40.3871 12.412V15.619C39.7111 15.252 38.9958 14.951 38.2581 14.705V13ZM45.0901 20.062C44.3982 18.921 43.5221 17.922 42.5161 17.075V15.37C43.7818 15.669 45.8694 16 48.9032 16C51.9371 16 54.0246 15.669 55.2903 15.37V18.777C55.2903 22.086 52.4257 24.777 48.9032 24.777C48.5466 24.777 48.1921 24.74 47.8387 24.683V23.21C47.8387 21.655 46.656 20.356 45.0901 20.062ZM46.9126 31.228C47.5045 29.899 47.8387 28.467 47.8387 27V26.705C48.1921 26.747 48.5477 26.778 48.9032 26.778C50.0327 26.778 51.11 26.566 52.0968 26.189V27.839L48.9032 36.839L46.9126 31.228ZM46.9999 37.799L44.0842 35.06C44.609 34.602 45.0742 34.097 45.4968 33.562L46.9999 37.799ZM53.8841 29.126L55.566 29.389L56.2633 32.671L50.8066 37.798L53.8841 29.126ZM32.2989 16.124C36.888 15.456 41.3728 17.603 43.4721 21.455L43.7701 22H44.4206C45.1316 22 45.7097 22.543 45.7097 23.21V27C45.7097 29.064 44.9347 31.056 43.5796 32.642L43.5743 26.507L42.1031 27.078C42.0797 27.088 39.6622 28 34 28C28.3378 28 25.9203 27.088 25.9033 27.081L24.4194 26.484V30.321C23.5582 28.64 23.1973 26.749 23.424 24.845C23.9456 20.461 27.6778 16.794 32.2989 16.124ZM22.1083 30.316C22.3489 30.9 22.6278 31.47 22.9642 32.014L21.0864 30.955L22.1083 30.316ZM19.134 29.775L15.9032 27.5V26.188C16.89 26.565 17.9673 26.777 19.0968 26.777C19.8334 26.777 20.5552 26.678 21.2588 26.502C21.2875 27.11 21.3567 27.713 21.4813 28.305L19.134 29.775ZM23.4751 34.633L24.5184 35.221C24.8324 37.383 25.964 39.298 27.6129 40.689V43H23.2303L22.3308 36.245L23.4751 34.633ZM28.4145 45.084L32.1392 47.883L29 49.653L26.1119 45.583L28.4145 45.084ZM29.7419 43.519V42.05C31.0268 42.652 32.4692 43 34 43C35.5308 43 36.9732 42.653 38.2581 42.05V43.519L34 46.719L29.7419 43.519ZM39.5855 45.083L41.8881 45.582L39 49.652L35.8608 47.882L39.5855 45.083ZM34 41C29.892 41 26.5484 37.859 26.5484 34V29.334C27.9397 29.639 30.3562 30 34 30C37.6438 30 40.0603 29.639 41.4516 29.334V34C41.4516 37.859 38.108 41 34 41ZM10.5806 12.412V15.985C9.90361 15.134 9.51613 14.09 9.51613 13V12C9.51613 7.037 13.8136 3 19.0968 3C22.4968 3 25.6734 4.725 27.3851 7.501L27.6927 8H28.6774C29.265 8 29.7419 8.448 29.7419 9V13C29.7419 13.627 29.6078 14.238 29.3587 14.826C28.753 15.051 28.1696 15.32 27.6108 15.628L27.6065 12.442L26.097 13.095C26.0747 13.104 23.9478 14 19.0968 14C14.2458 14 12.1189 13.104 12.1061 13.099L10.5806 12.412ZM12.7097 18.777V15.37C13.9754 15.669 16.0629 16 19.0968 16C22.1306 16 24.2182 15.669 25.4839 15.37V17.085C23.275 18.958 21.7527 21.537 21.3482 24.381C20.6244 24.64 19.8707 24.778 19.0968 24.778C15.5743 24.777 12.7097 22.086 12.7097 18.777ZM14.5641 29.056L17.1913 30.907L14.1393 32.628L12.104 29.442L14.5641 29.056ZM14.9633 43H9.51613V40H7.3871V43H3.12903V36.777C3.12903 33.34 5.74774 30.436 9.35539 29.872L9.84719 29.795L13.4091 35.372L14.7184 34.634L15.8617 36.245L14.9633 43ZM17.1083 43L18.0716 35.755L16.5451 33.604L19.0968 32.166L21.6474 33.603L20.1208 35.754L21.0842 43H17.1083ZM29.8537 61H22.2903V56H20.1613V61H15.9032V53.364C15.9032 50.085 18.2782 47.28 21.6793 46.544L23.8946 46.064L28.3549 52.348L29.6216 51.634L30.7703 53.252L29.8537 61ZM36.0045 61H31.9966L32.9727 52.748L31.4505 50.603L34 49.166L36.5506 50.603L35.0283 52.748L36.0045 61ZM52.0968 53.364V61H47.8387V56H45.7097V61H38.1463L37.2297 53.252L38.3784 51.634L39.6451 52.348L44.1055 46.064L46.3207 46.544C49.7218 47.28 52.0968 50.085 52.0968 53.364ZM64.871 43H60.6129V40H58.4839V43H40.3871V40.689C41.5889 39.675 42.5161 38.383 43.0537 36.918L48.9032 42.414L58.5754 33.329L57.8111 29.741L58.6446 29.872C62.2523 30.437 64.871 33.341 64.871 36.777V43Z" fill="#11B4E8"/>
</g>
</g>
<defs>
<clipPath id="clip0_124_555">
<rect width="66" height="66" fill="white" transform="translate(0.75 0.799805)"/>
</clipPath>
<clipPath id="clip1_124_555">
<rect width="66" height="66" fill="white" transform="translate(0.75 0.799805)"/>
</clipPath>
</defs>
</svg>
