<svg width="60" height="58" viewBox="0 0 60 58" fill="none" xmlns="http://www.w3.org/2000/svg">
<path d="M58.5147 11.799C59.3235 11.799 59.9853 11.1593 60 10.3775V1.43578C60 0.639706 59.3382 0 58.5147 0H49.2647C48.4559 0 47.7941 0.639706 47.7941 1.43578C47.7941 3.15518 46.4003 4.54902 44.6809 4.54902H15.3191C13.5997 4.54902 12.2059 3.15518 12.2059 1.43578C12.2059 0.653922 11.5441 0.0142157 10.7353 0H1.48529C0.676471 0 0.0147059 0.639706 0 1.43578V10.3775C0 11.1593 0.661765 11.799 1.48529 11.799C3.26398 11.799 4.70588 13.2409 4.70588 15.0196V42.9804C4.70588 44.7591 3.26398 46.201 1.48529 46.201C0.676471 46.201 0.0147059 46.8407 0 47.6226V56.5642C0 57.3461 0.661765 57.9858 1.48529 58H10.7353C11.5441 58 12.2059 57.3603 12.2059 56.5642C12.2059 54.8448 13.5997 53.451 15.3191 53.451H44.6809C46.4003 53.451 47.7941 54.8448 47.7941 56.5642C47.7941 57.3461 48.4559 57.9858 49.2647 58H58.5147C59.3235 58 59.9853 57.3603 60 56.5642V47.6226C60 46.8407 59.3382 46.201 58.5147 46.201C56.736 46.201 55.2941 44.7591 55.2941 42.9804V15.0196C55.2941 13.2409 56.736 11.799 58.5147 11.799ZM5.99755 8.95588C4.30956 8.95588 2.94118 7.5875 2.94118 5.89951C2.94118 4.21152 4.30956 2.84314 5.99755 2.84314H6.20833C7.89632 2.84314 9.26471 4.21152 9.26471 5.89951C9.26471 7.5875 7.89632 8.95588 6.20833 8.95588H5.99755ZM9.26471 52.1005C9.26471 53.7885 7.89632 55.1569 6.20833 55.1569H5.99755C4.30956 55.1569 2.94118 53.7885 2.94118 52.1005C2.94118 50.4125 4.30956 49.0441 5.99755 49.0441H6.20833C7.89632 49.0441 9.26471 50.4125 9.26471 52.1005ZM47.7941 47.6226C47.7941 49.2713 46.4576 50.6078 44.8088 50.6078H15.1912C13.5424 50.6078 12.2059 49.2713 12.2059 47.6226C12.2059 46.8407 11.5441 46.201 10.7353 46.201C9.02971 46.201 7.64706 44.8183 7.64706 43.1127V14.8873C7.64706 13.1817 9.02971 11.799 10.7353 11.799C11.5441 11.799 12.2059 11.1593 12.2059 10.3775C12.2059 8.72872 13.5424 7.39216 15.1912 7.39216H44.8088C46.4576 7.39216 47.7941 8.72872 47.7941 10.3775C47.7941 11.1593 48.4559 11.799 49.2647 11.799C50.9703 11.799 52.3529 13.1817 52.3529 14.8873V43.1128C52.3529 44.8183 50.9703 46.201 49.2647 46.201C48.4559 46.201 47.7941 46.8407 47.7941 47.6226ZM54.0025 49.0441C55.6904 49.0441 57.0588 50.4125 57.0588 52.1005C57.0588 53.7885 55.6904 55.1569 54.0025 55.1569H53.7917C52.1037 55.1569 50.7353 53.7885 50.7353 52.1005C50.7353 50.4125 52.1037 49.0441 53.7917 49.0441H54.0025ZM53.7917 8.95588C52.1037 8.95588 50.7353 7.5875 50.7353 5.89951C50.7353 4.21152 52.1037 2.84314 53.7917 2.84314H54.0025C55.6904 2.84314 57.0588 4.21152 57.0588 5.89951C57.0588 7.5875 55.6904 8.95588 54.0025 8.95588H53.7917Z" fill="#11B4E8"/>
</svg>
