<svg width="24" height="24" viewBox="0 0 24 24" fill="none" xmlns="http://www.w3.org/2000/svg">
<path d="M16.4154 1.09289C15.7405 1.17727 15.2037 1.78481 15.1117 2.52735L13.9308 8.04576C13.7621 8.82205 14.1148 9.6321 14.7743 9.96962L15.6792 10.4253C15.0044 12.366 13.5167 13.6992 13.5167 13.6992C13.5167 13.6992 12.2897 15.3361 10.5413 16.0787L10.1272 15.083C9.97826 14.7297 9.72263 14.4442 9.40385 14.2749C9.08507 14.1057 8.72283 14.0633 8.37881 14.1548L3.36364 15.4543C2.68882 15.5555 2.13669 16.1462 2.06 16.8887C1.90663 18.2726 1.95264 20.4327 3.36364 21.5802C3.36364 21.5802 9.72847 26.508 17.4583 18.0025C25.1881 9.49709 20.7097 2.49359 20.7097 2.49359C19.6515 0.941012 17.6883 0.90726 16.446 1.05914L16.4154 1.09289Z" fill="#11B4E8"/>
</svg>
