<svg width="31" height="35" viewBox="0 0 31 35" fill="none" xmlns="http://www.w3.org/2000/svg">
<path d="M24.551 5.42503C23.2076 3.93133 22.4673 2.01307 22.4678 0.0273438H16.3953V23.7619C16.3484 25.0463 15.7917 26.2628 14.8423 27.1554C13.8929 28.048 12.6249 28.5469 11.3053 28.547C8.5147 28.547 6.19573 26.3267 6.19573 23.5705C6.19573 20.2782 9.45801 17.8091 12.8186 18.8236V12.7751C6.03851 11.8946 0.103516 17.0243 0.103516 23.5705C0.103516 29.9443 5.52755 34.4807 11.2857 34.4807C17.4565 34.4807 22.4678 29.5998 22.4678 23.5705V11.5309C24.9303 13.2533 27.8867 14.1774 30.9183 14.1724V8.25786C30.9183 8.25786 27.2237 8.43013 24.551 5.42503Z" fill="#00ABF7"/>
</svg>
