<svg width="66" height="66" viewBox="0 0 66 66" fill="none" xmlns="http://www.w3.org/2000/svg">
<path d="M22 27H45" stroke="#11B4E8" stroke-width="2" stroke-miterlimit="10" stroke-linecap="round" stroke-linejoin="round"/>
<path d="M51.4 18H14.6C12.07 18 10 20.1462 10 22.7692V44.2308C10 46.8538 12.07 49 14.6 49H23.57C24.72 49 25.87 48.5231 26.79 47.5692L29.55 44.7077C31.39 42.8 34.15 42.8 35.99 44.7077L38.75 47.5692C39.67 48.5231 40.82 49 41.97 49H51.4C53.93 49 56 46.8538 56 44.2308V22.7692C56 20.1462 53.93 18 51.4 18Z" stroke="#11B4E8" stroke-width="2" stroke-miterlimit="10" stroke-linecap="round" stroke-linejoin="round"/>
<path d="M10 25H3V42H10V25Z" stroke="#11B4E8" stroke-width="2" stroke-miterlimit="10" stroke-linecap="round" stroke-linejoin="round"/>
<path d="M63 25H56V42H63V25Z" stroke="#11B4E8" stroke-width="2" stroke-miterlimit="10" stroke-linecap="round" stroke-linejoin="round"/>
</svg>
