<svg width="51" height="52" viewBox="0 0 51 52" fill="none" xmlns="http://www.w3.org/2000/svg">
<rect x="0.40802" y="-0.0078125" width="50" height="49" rx="6" fill="#0D1E29"/>
<path d="M20.1324 36.2368L20.1324 37.6079L15.6793 37.6079L15.6793 36.2368L20.1324 36.2368ZM16.2008 32.7622L16.2008 41.2935L14.4429 41.2935L14.4429 32.7622L16.2008 32.7622ZM21.3863 32.7622L21.3863 41.2935L19.6343 41.2935L19.6343 32.7622L21.3863 32.7622ZM26.072 39.8638L26.072 37.0396C26.072 36.8364 26.0388 36.6626 25.9724 36.5181C25.906 36.3696 25.8025 36.2544 25.6618 36.1724C25.5251 36.0903 25.3474 36.0493 25.1286 36.0493C24.9411 36.0493 24.779 36.0825 24.6423 36.1489C24.5056 36.2114 24.4001 36.3032 24.3259 36.4243C24.2517 36.5415 24.2146 36.6802 24.2146 36.8403L22.5271 36.8403C22.5271 36.5708 22.5896 36.3149 22.7146 36.0728C22.8396 35.8306 23.0212 35.6177 23.2595 35.4341C23.4978 35.2466 23.781 35.1001 24.1091 34.9946C24.4411 34.8892 24.8122 34.8364 25.2224 34.8364C25.7146 34.8364 26.1521 34.9185 26.5349 35.0825C26.9177 35.2466 27.2185 35.4927 27.4372 35.8208C27.6599 36.1489 27.7712 36.5591 27.7712 37.0513L27.7712 39.7642C27.7712 40.1118 27.7927 40.397 27.8357 40.6196C27.8786 40.8384 27.9411 41.0298 28.0232 41.1938L28.0232 41.2935L26.3181 41.2935C26.2361 41.1216 26.1736 40.9067 26.1306 40.6489C26.0915 40.3872 26.072 40.1255 26.072 39.8638ZM26.2947 37.4321L26.3064 38.3872L25.363 38.3872C25.1404 38.3872 24.947 38.4126 24.7829 38.4634C24.6189 38.5142 24.4841 38.5864 24.3786 38.6802C24.2732 38.77 24.1951 38.8755 24.1443 38.9966C24.0974 39.1177 24.074 39.2505 24.074 39.395C24.074 39.5396 24.1072 39.6704 24.1736 39.7876C24.24 39.9009 24.3357 39.9907 24.4607 40.0571C24.5857 40.1196 24.7322 40.1509 24.9001 40.1509C25.154 40.1509 25.3747 40.1001 25.5622 39.9985C25.7497 39.897 25.8943 39.772 25.9958 39.6235C26.1013 39.4751 26.156 39.3345 26.1599 39.2017L26.6052 39.9165C26.5427 40.0767 26.4568 40.2427 26.3474 40.4146C26.2419 40.5864 26.1072 40.7485 25.9431 40.9009C25.779 41.0493 25.5818 41.1724 25.3513 41.27C25.1208 41.3638 24.8474 41.4106 24.531 41.4106C24.1286 41.4106 23.7634 41.3306 23.4353 41.1704C23.1111 41.0063 22.8533 40.7817 22.6618 40.4966C22.4743 40.2075 22.3806 39.8794 22.3806 39.5122C22.3806 39.1802 22.4431 38.8853 22.5681 38.6274C22.6931 38.3696 22.8767 38.1528 23.1189 37.9771C23.365 37.7974 23.6716 37.6626 24.0388 37.5728C24.406 37.479 24.8318 37.4321 25.3161 37.4321L26.2947 37.4321ZM30.5995 36.3364L30.5995 41.2935L28.912 41.2935L28.912 34.9536L30.4999 34.9536L30.5995 36.3364ZM32.5097 34.9126L32.4804 36.4771C32.3983 36.4653 32.2987 36.4556 32.1815 36.4478C32.0683 36.436 31.9647 36.4302 31.871 36.4302C31.6327 36.4302 31.4257 36.4614 31.2499 36.5239C31.078 36.5825 30.9335 36.6704 30.8163 36.7876C30.703 36.9048 30.6171 37.0474 30.5585 37.2153C30.5038 37.3833 30.4726 37.5747 30.4647 37.7896L30.1249 37.6841C30.1249 37.2739 30.1659 36.897 30.2479 36.5532C30.33 36.2056 30.4491 35.9028 30.6054 35.645C30.7655 35.3872 30.9608 35.188 31.1913 35.0474C31.4218 34.9067 31.6854 34.8364 31.9823 34.8364C32.0761 34.8364 32.1718 34.8442 32.2694 34.8599C32.3671 34.8716 32.4472 34.8892 32.5097 34.9126ZM36.7735 39.9106L36.7735 32.2935L38.4727 32.2935L38.4727 41.2935L36.9434 41.2935L36.7735 39.9106ZM32.7657 38.1997L32.7657 38.0767C32.7657 37.5923 32.8204 37.1528 32.9297 36.7583C33.0391 36.3599 33.1993 36.0181 33.4102 35.7329C33.6211 35.4478 33.8809 35.2271 34.1895 35.0708C34.4981 34.9146 34.8497 34.8364 35.2442 34.8364C35.6153 34.8364 35.9395 34.9146 36.2168 35.0708C36.4981 35.2271 36.7364 35.4497 36.9317 35.7388C37.1309 36.0239 37.2911 36.3618 37.4122 36.7524C37.5333 37.1392 37.6211 37.563 37.6758 38.0239L37.6758 38.2935C37.6211 38.7349 37.5333 39.145 37.4122 39.5239C37.2911 39.9028 37.1309 40.2349 36.9317 40.52C36.7364 40.8013 36.4981 41.02 36.2168 41.1763C35.9356 41.3325 35.6075 41.4106 35.2325 41.4106C34.8379 41.4106 34.4864 41.3306 34.1778 41.1704C33.8731 41.0103 33.6153 40.7856 33.4043 40.4966C33.1973 40.2075 33.0391 39.8677 32.9297 39.4771C32.8204 39.0864 32.7657 38.6606 32.7657 38.1997ZM34.4532 38.0767L34.4532 38.1997C34.4532 38.4614 34.4727 38.7056 34.5118 38.9321C34.5547 39.1587 34.6231 39.3599 34.7168 39.5356C34.8145 39.7075 34.9395 39.8423 35.0918 39.9399C35.2481 40.0337 35.4376 40.0806 35.6602 40.0806C35.9493 40.0806 36.1876 40.0161 36.3751 39.8872C36.5626 39.7544 36.7051 39.5728 36.8028 39.3423C36.9043 39.1118 36.9629 38.8462 36.9786 38.5454L36.9786 37.7778C36.9668 37.5317 36.9317 37.311 36.8731 37.1157C36.8184 36.9165 36.7364 36.7466 36.627 36.606C36.5215 36.4653 36.3887 36.356 36.2286 36.2778C36.0723 36.1997 35.8868 36.1606 35.6719 36.1606C35.4532 36.1606 35.2657 36.2114 35.1094 36.313C34.9532 36.4106 34.8262 36.5454 34.7286 36.7173C34.6348 36.8892 34.5645 37.0923 34.5176 37.3267C34.4747 37.5571 34.4532 37.8071 34.4532 38.0767Z" fill="white"/>
<path d="M18.3273 15.7421C20.5865 13.9381 23.4465 12.8579 26.5514 12.8579C29.6563 12.8579 32.5164 13.9381 34.7755 15.7421L39.6387 10.8757C36.1221 7.8355 31.5482 5.99805 26.5514 5.99805C21.5546 5.99805 16.9808 7.8355 13.4641 10.8757L18.3273 15.7421Z" fill="#EB5757"/>
<path d="M41.7425 12.9805L36.8792 17.8469C38.3927 19.7401 39.3943 22.0564 39.6725 24.5843L46.5612 24.5843C46.2384 20.1633 44.469 16.1431 41.7425 12.9805Z" fill="#EB5757"/>
<path d="M6.54208 24.5843L13.4307 24.5843C13.7201 22.0564 14.7216 19.7401 16.224 17.8469L11.3608 12.9805C8.62314 16.1431 6.86481 20.1633 6.54208 24.5843Z" fill="#EB5757"/>
<path d="M27.3861 27.0564C28.1429 26.7335 30.6468 25.5196 33.9854 22.2567C29.3448 21.6999 26.6182 22.2567 25.8281 22.4572C25.6723 22.5017 25.5944 22.524 25.5944 22.524C24.3146 22.9583 23.6358 24.3392 24.0698 25.6199C24.5038 26.9005 25.8837 27.5798 27.1635 27.1455C27.1524 27.1455 27.2303 27.1121 27.3861 27.0564Z" fill="white"/>
</svg>
