<svg width="62" height="62" viewBox="0 0 62 62" fill="none" xmlns="http://www.w3.org/2000/svg">
<g clip-path="url(#clip0_124_519)">
<path d="M39.7188 31C39.7188 26.1925 35.8075 22.2812 31 22.2812C26.1925 22.2812 22.2812 26.1925 22.2812 31C22.2812 35.8075 26.1925 39.7188 31 39.7188C35.8075 39.7188 39.7188 35.8075 39.7188 31ZM31 37.7812C27.2609 37.7812 24.2188 34.7391 24.2188 31C24.2188 27.2609 27.2609 24.2188 31 24.2188C34.7391 24.2188 37.7812 27.2609 37.7812 31C37.7812 34.7391 34.7391 37.7812 31 37.7812Z" fill="#11B4E8"/>
<path d="M52.9203 9.07961C47.0651 3.22448 39.2804 0 31 0C22.7196 0 14.9349 3.22448 9.07961 9.07961C3.22436 14.9347 0 22.7196 0 31C0 39.2804 3.22448 47.0651 9.07961 52.9203C14.9347 58.7754 22.7196 62 31 62C39.2804 62 47.0651 58.7754 52.9203 52.9203C58.7754 47.0651 62 39.2804 62 31C62 22.7196 58.7754 14.9349 52.9203 9.07961ZM51.5503 51.5503C46.061 57.0395 38.7628 60.0625 31 60.0625C23.2372 60.0625 15.939 57.0395 10.4497 51.5503C4.96036 46.0612 1.9375 38.7628 1.9375 31C1.9375 23.2372 4.96048 15.9388 10.4497 10.4497C15.9388 4.96048 23.2372 1.9375 31 1.9375C38.7628 1.9375 46.061 4.96048 51.5503 10.4497C57.0396 15.9388 60.0625 23.2372 60.0625 31C60.0625 38.7628 57.0395 46.061 51.5503 51.5503Z" fill="#11B4E8"/>
<path d="M55.754 38.1799C55.5717 37.9293 55.2805 37.7812 54.9707 37.7812H54.25C53.7159 37.7812 53.2812 37.3466 53.2812 36.8125V25.1875C53.2812 24.6534 53.7159 24.2188 54.25 24.2188H54.9707C55.2806 24.2188 55.5717 24.0705 55.754 23.8201C55.9362 23.5697 55.9878 23.2471 55.8926 22.9522C54.2056 17.7307 50.9709 13.2374 46.5381 9.95814C42.0152 6.6122 36.6421 4.84375 31 4.84375C25.3579 4.84375 19.9848 6.6122 15.462 9.95802C11.0292 13.2372 7.79444 17.7305 6.10748 22.9521C6.0123 23.247 6.06377 23.5696 6.24613 23.82C6.42838 24.0705 6.71961 24.2186 7.02937 24.2186H7.75C8.28414 24.2186 8.71875 24.6532 8.71875 25.1874V36.8124C8.71875 37.3465 8.28414 37.7811 7.75 37.7811H7.02925C6.71937 37.7811 6.42826 37.9293 6.24601 38.1798C6.06377 38.4302 6.01218 38.7528 6.10736 39.0476C8.68302 47.0196 14.98 53.3167 22.9521 55.8924C23.2468 55.9876 23.5694 55.936 23.82 55.7537C24.0705 55.5715 24.2186 55.2803 24.2186 54.9705V54.25C24.2186 53.7159 24.6532 53.2812 25.1874 53.2812H36.8124C37.3465 53.2812 37.7811 53.7159 37.7811 54.25V54.9707C37.7811 55.2806 37.9293 55.5717 38.1798 55.754C38.3475 55.876 38.5475 55.9395 38.7499 55.9395C38.8498 55.9395 38.9502 55.9241 39.0476 55.8926C47.0196 53.317 53.3167 47.0199 55.8924 39.0479C55.9878 38.753 55.9362 38.4304 55.754 38.1799ZM8.37315 22.3486C10.0221 18.0249 12.8522 14.2987 16.6142 11.5158C20.8011 8.41844 25.7757 6.78125 31 6.78125C36.2243 6.78125 41.1989 8.41844 45.3857 11.5158C49.1477 14.2987 51.9778 18.0249 53.6267 22.3486C53.0217 22.4812 52.4884 22.8046 52.0887 23.25H40.9265C38.5469 20.2078 34.8735 18.4062 31 18.4062C27.1265 18.4062 23.4531 20.2078 21.0735 23.25H9.91116C9.51143 22.8045 8.97825 22.4812 8.37315 22.3486ZM22.3487 53.6261C15.9329 51.1714 10.8286 46.0672 8.37399 39.6514C8.97861 39.5186 9.51167 39.1954 9.91116 38.7501H20.3497C21.9488 38.75 23.25 40.0508 23.25 41.6497V52.0888C22.8047 52.4885 22.4814 53.0214 22.3487 53.6261ZM25.1875 51.3438V41.6497C25.1875 38.9824 23.0173 36.8125 20.3496 36.8125H10.6562V25.1875H21.5573C21.869 25.1875 22.1617 25.0376 22.3437 24.7845C24.3443 22.0038 27.5802 20.3438 31 20.3438C34.4198 20.3438 37.6557 22.0038 39.6561 24.7845C39.8381 25.0375 40.1308 25.1875 40.4425 25.1875H51.3438V36.8125H41.6504C38.9829 36.8125 36.8125 38.9824 36.8125 41.6497V51.3438H25.1875ZM39.6513 53.6261C39.5185 53.0215 39.1953 52.4886 38.75 52.089V41.6497C38.75 40.0508 40.0512 38.75 41.6504 38.75H52.0888C52.4884 39.1953 53.0214 39.5186 53.6261 39.6513C51.1714 46.0671 46.0671 51.1714 39.6513 53.6261Z" fill="#11B4E8"/>
<path d="M14.5312 30.0312H12.5938C12.0588 30.0312 11.625 30.465 11.625 31C11.625 31.535 12.0588 31.9688 12.5938 31.9688H14.5312C15.0662 31.9688 15.5 31.535 15.5 31C15.5 30.465 15.0662 30.0312 14.5312 30.0312Z" fill="#11B4E8"/>
<path d="M20.3438 30.0312H18.4062C17.8713 30.0312 17.4375 30.465 17.4375 31C17.4375 31.535 17.8713 31.9688 18.4062 31.9688H20.3438C20.8787 31.9688 21.3125 31.535 21.3125 31C21.3125 30.465 20.8787 30.0312 20.3438 30.0312Z" fill="#11B4E8"/>
<path d="M16.4688 31.9688C15.9338 31.9688 15.5 32.4025 15.5 32.9375V34.875C15.5 35.41 15.9338 35.8438 16.4688 35.8438C17.0037 35.8438 17.4375 35.41 17.4375 34.875V32.9375C17.4375 32.4025 17.0037 31.9688 16.4688 31.9688Z" fill="#11B4E8"/>
<path d="M16.4688 30.0312C17.0037 30.0312 17.4375 29.5975 17.4375 29.0625V27.125C17.4375 26.59 17.0037 26.1562 16.4688 26.1562C15.9338 26.1562 15.5 26.59 15.5 27.125V29.0625C15.5 29.5975 15.9338 30.0312 16.4688 30.0312Z" fill="#11B4E8"/>
<path d="M45.5312 35.8438C46.3325 35.8438 46.9844 35.1919 46.9844 34.3906C46.9844 33.5893 46.3325 32.9375 45.5312 32.9375C44.73 32.9375 44.0781 33.5893 44.0781 34.3906C44.0781 35.1919 44.73 35.8438 45.5312 35.8438Z" fill="#11B4E8"/>
<path d="M45.5312 29.0625C46.3325 29.0625 46.9844 28.4107 46.9844 27.6094C46.9844 26.8081 46.3325 26.1562 45.5312 26.1562C44.73 26.1562 44.0781 26.8081 44.0781 27.6094C44.0781 28.4107 44.73 29.0625 45.5312 29.0625Z" fill="#11B4E8"/>
<path d="M48.9219 32.4531C49.7232 32.4531 50.375 31.8013 50.375 31C50.375 30.1987 49.7232 29.5469 48.9219 29.5469C48.1206 29.5469 47.4688 30.1987 47.4688 31C47.4688 31.8013 48.1206 32.4531 48.9219 32.4531Z" fill="#11B4E8"/>
<path d="M42.1406 32.4531C42.9419 32.4531 43.5938 31.8013 43.5938 31C43.5938 30.1987 42.9419 29.5469 42.1406 29.5469C41.3393 29.5469 40.6875 30.1987 40.6875 31C40.6875 31.8013 41.3393 32.4531 42.1406 32.4531Z" fill="#11B4E8"/>
<path d="M29.0625 41.6562H27.125C26.59 41.6562 26.1562 42.09 26.1562 42.625C26.1562 43.16 26.59 43.5938 27.125 43.5938H29.0625C29.5975 43.5938 30.0312 43.16 30.0312 42.625C30.0312 42.09 29.5975 41.6562 29.0625 41.6562Z" fill="#11B4E8"/>
<path d="M34.875 41.6562H32.9375C32.4025 41.6562 31.9688 42.09 31.9688 42.625C31.9688 43.16 32.4025 43.5938 32.9375 43.5938H34.875C35.41 43.5938 35.8438 43.16 35.8438 42.625C35.8438 42.09 35.41 41.6562 34.875 41.6562Z" fill="#11B4E8"/>
<path d="M31 26.1562C30.465 26.1562 30.0312 26.59 30.0312 27.125C30.0312 27.66 30.465 28.0938 31 28.0938C32.6026 28.0938 33.9062 29.3974 33.9062 31C33.9062 31.535 34.34 31.9688 34.875 31.9688C35.41 31.9688 35.8438 31.535 35.8438 31C35.8438 28.3292 33.6708 26.1562 31 26.1562Z" fill="#11B4E8"/>
</g>
<defs>
<clipPath id="clip0_124_519">
<rect width="62" height="62" fill="white"/>
</clipPath>
</defs>
</svg>
